<?xml version="1.0" encoding="UTF-8"?>
<svg width="75px" height="71px" viewBox="0 0 75 71" version="1.1" xmlns="http://www.w3.org/2000/svg" xmlns:xlink="http://www.w3.org/1999/xlink">
    <!-- Generator: Sketch 49.1 (51147) - http://www.bohemiancoding.com/sketch -->
    <title>Group 4</title>
    <desc>Created with Sketch.</desc>
    <defs>
        <circle id="path-1" cx="25" cy="25" r="25"></circle>
        <filter x="-41.0%" y="-37.0%" width="182.0%" height="182.0%" filterUnits="objectBoundingBox" id="filter-2">
            <feMorphology radius="1" operator="dilate" in="SourceAlpha" result="shadowSpreadOuter1"></feMorphology>
            <feOffset dx="0" dy="2" in="shadowSpreadOuter1" result="shadowOffsetOuter1"></feOffset>
            <feGaussianBlur stdDeviation="5.5" in="shadowOffsetOuter1" result="shadowBlurOuter1"></feGaussianBlur>
            <feColorMatrix values="0 0 0 0 0   0 0 0 0 0   0 0 0 0 0  0 0 0 0.0990998641 0" type="matrix" in="shadowBlurOuter1"></feColorMatrix>
        </filter>
    </defs>
    <g id="Appli" stroke="none" stroke-width="1" fill="none" fill-rule="evenodd">
        <g id="Galaxy-S8-Copy-2" transform="translate(-285.000000, -669.000000)">
            <g id="Group-4" transform="translate(298.000000, 680.000000)">
                <g id="Oval-Copy-3">
                    <use fill="black" fill-opacity="1" filter="url(#filter-2)" xlink:href="#path-1"></use>
                    <use fill="#FFFFFF" fill-rule="evenodd" xlink:href="#path-1"></use>
                </g>
                <g id="filter-tool-black-shape" transform="translate(11.000000, 15.000000)" fill="#953393" fill-rule="nonzero">
                    <path d="M25.8889453,0.720249556 C25.6796291,0.240277218 25.3173784,0.000258710329 24.8004495,0 L1.19893667,0 C0.682718157,0 0.319950815,0.240277218 0.110957559,0.720249556 C-0.0979065297,1.22479938 -0.0119454593,1.65594014 0.369228273,2.01283104 L9.45985366,11.1163948 L9.45985366,20.0907327 C9.45985366,20.4112101 9.5766858,20.6878361 9.81015633,20.9220983 L14.5302651,25.6489301 C14.7517231,25.8826749 15.0282064,26 15.3602319,26 C15.5076122,26 15.6611925,25.9690194 15.8210375,25.9075111 C16.3006369,25.698085 16.5405013,25.3350498 16.5405013,24.8180172 L16.5405013,11.1164594 L25.6308037,2.01289571 C26.0121066,1.65600482 26.097874,1.22499341 25.8889453,0.720249556 Z" id="Shape"></path>
                </g>
            </g>
        </g>
    </g>
</svg>