<?xml version="1.0" encoding="UTF-8"?>
<svg width="49px" height="49px" viewBox="0 0 49 49" version="1.1" xmlns="http://www.w3.org/2000/svg" xmlns:xlink="http://www.w3.org/1999/xlink">
    <!-- Generator: Sketch 49.1 (51147) - http://www.bohemiancoding.com/sketch -->
    <title>Group 5</title>
    <desc>Created with Sketch.</desc>
    <defs>
        <circle id="path-1" cx="11.5" cy="11.5" r="11.5"></circle>
        <filter x="-89.1%" y="-80.4%" width="278.3%" height="278.3%" filterUnits="objectBoundingBox" id="filter-2">
            <feMorphology radius="1" operator="dilate" in="SourceAlpha" result="shadowSpreadOuter1"></feMorphology>
            <feOffset dx="0" dy="2" in="shadowSpreadOuter1" result="shadowOffsetOuter1"></feOffset>
            <feGaussianBlur stdDeviation="5.5" in="shadowOffsetOuter1" result="shadowBlurOuter1"></feGaussianBlur>
            <feColorMatrix values="0 0 0 0 0   0 0 0 0 0   0 0 0 0 0  0 0 0 0.0990998641 0" type="matrix" in="shadowBlurOuter1"></feColorMatrix>
        </filter>
    </defs>
    <g id="Appli" stroke="none" stroke-width="1" fill="none" fill-rule="evenodd">
        <g id="Galaxy-S8-Copy-2" transform="translate(-156.000000, -683.000000)">
            <g id="Group-5" transform="translate(169.000000, 694.000000)">
                <g id="Oval-Copy-4">
                    <use fill="black" fill-opacity="1" filter="url(#filter-2)" xlink:href="#path-1"></use>
                    <use fill="#953393" fill-rule="evenodd" xlink:href="#path-1"></use>
                </g>
                <g id="info" transform="translate(9.000000, 5.000000)" fill="#FFFFFF" fill-rule="nonzero">
                    <path d="M4.85030122,11.5970854 L4.69218443,12.339613 C4.21783403,12.5546932 3.83892168,12.7183918 3.55676586,12.8309419 C3.27430577,12.9438415 2.94610438,13 2.57216171,13 C1.99791071,13 1.5512485,12.8383986 1.2326822,12.5174095 C0.914115905,12.1951388 0.754782044,11.7867661 0.754782044,11.2913593 C0.754782044,11.0995815 0.766344145,10.9023275 0.790381144,10.7013453 C0.814620986,10.50013 0.853161322,10.2735152 0.905900728,10.0202192 L1.49871194,7.60982998 C1.55145135,7.37902077 1.59627984,7.16032874 1.63218321,6.95352089 C1.66859368,6.74799466 1.68613968,6.55889655 1.68613968,6.38867329 C1.68613968,6.08085 1.63066188,5.8655368 1.52021339,5.74448139 C1.4097649,5.62377551 1.19901012,5.56249048 0.886123451,5.56249048 C0.732874906,5.56249048 0.57536664,5.59068625 0.414815716,5.64521362 C0.253554839,5.69997401 0.115722428,5.75287022 0,5.80203805 L0.158522485,5.05892792 C0.546867076,4.87728654 0.91807136,4.72174373 1.27314956,4.59264902 C1.62822775,4.46320478 1.96373152,4.39842441 2.28108075,4.39842441 C2.8513763,4.39842441 3.29144607,4.55676349 3.60047871,4.87344166 C3.90951135,5.19035285 4.06397696,5.60117228 4.06397696,6.10741461 C4.06397696,6.21215842 4.05383476,6.39671258 4.03202905,6.66049455 C4.01073044,6.92485907 3.97107446,7.16708641 3.91326396,7.38740959 L3.3229883,9.78812838 C3.27461003,9.98095486 3.23110002,10.2013946 3.19326964,10.4494475 C3.1542222,10.6958692 3.13556056,10.8841518 3.13556056,11.0104502 C3.13556056,11.3292256 3.19742794,11.546869 3.32146697,11.6625649 C3.44641879,11.7782608 3.66163614,11.8358174 3.96732185,11.8358174 C4.11083389,11.8358174 4.27412321,11.806573 4.45556705,11.7491329 C4.63650378,11.6916927 4.76845372,11.6412433 4.85030122,11.5970854 Z M5,1.51814442 C5,1.93642059 4.86277612,2.29364475 4.58700988,2.58737016 C4.31195359,2.88214417 3.9805067,3.02964769 3.59277064,3.02964769 C3.20381752,3.02964769 2.87155926,2.88214417 2.59335889,2.58737016 C2.31566563,2.29352824 2.17651474,1.93642059 2.17651474,1.51814442 C2.17651474,1.10068383 2.31566563,0.742877116 2.59335889,0.44542334 C2.87105215,0.148435609 3.20391894,0 3.59277064,0 C3.98040528,0 4.31195359,0.148785144 4.58700988,0.44542334 C4.86297897,0.742877116 5,1.10080034 5,1.51814442 Z" id="Shape"></path>
                </g>
            </g>
        </g>
    </g>
</svg>