<?xml version="1.0" encoding="UTF-8" standalone="no"?>
<!-- Generator: Adobe Illustrator 16.0.3, SVG Export Plug-In . SVG Version: 6.00 Build 0)  -->

<svg
   xmlns:dc="http://purl.org/dc/elements/1.1/"
   xmlns:cc="http://creativecommons.org/ns#"
   xmlns:rdf="http://www.w3.org/1999/02/22-rdf-syntax-ns#"
   xmlns:svg="http://www.w3.org/2000/svg"
   xmlns="http://www.w3.org/2000/svg"
   xmlns:sodipodi="http://sodipodi.sourceforge.net/DTD/sodipodi-0.dtd"
   xmlns:inkscape="http://www.inkscape.org/namespaces/inkscape"
   version="1.1"
   id="Layer_1"
   x="0px"
   y="0px"
   width="315.715"
   height="307.005"
   viewBox="0 0 315.71498 307.005"
   enable-background="new 0 0 595.28 841.89"
   xml:space="preserve"
   inkscape:version="0.91 r13725"
   sodipodi:docname="moi1.svg"><metadata
     id="metadata15"><rdf:RDF><cc:Work
         rdf:about=""><dc:format>image/svg+xml</dc:format><dc:type
           rdf:resource="http://purl.org/dc/dcmitype/StillImage" /><dc:title></dc:title></cc:Work></rdf:RDF></metadata><defs
     id="defs13" /><sodipodi:namedview
     pagecolor="#ffffff"
     bordercolor="#666666"
     borderopacity="1"
     objecttolerance="10"
     gridtolerance="10"
     guidetolerance="10"
     inkscape:pageopacity="0"
     inkscape:pageshadow="2"
     inkscape:window-width="640"
     inkscape:window-height="480"
     id="namedview11"
     showgrid="false"
     fit-margin-top="0"
     fit-margin-left="0"
     fit-margin-right="0"
     fit-margin-bottom="0"
     inkscape:zoom="0.28032165"
     inkscape:cx="166.06801"
     inkscape:cy="12.488993"
     inkscape:window-x="0"
     inkscape:window-y="0"
     inkscape:window-maximized="0"
     inkscape:current-layer="Layer_1" /><g
     id="g3"
     transform="translate(-131.572,-126.429)"><path
       d="m 237.185,433.281 0,-16.955 c 0,0 -5.303,5.604 -9.161,13.429 3.006,1.27 6.064,2.44 9.161,3.526 z"
       id="path5"
       inkscape:connector-curvature="0"
       style="fill:#b17650" /><path
       d="m 289.429,126.429 c -87.182,0 -157.857,70.675 -157.857,157.857 0,55.192 28.332,103.76 71.238,131.978 8.826,-18.425 25.298,-41.231 54.495,-49.26 l 10.384,-6.49 0,-3.245 c 0,0 -27.257,-3.894 -36.992,-31.151 0,0 -44.131,-7.139 -15.576,-40.237 l 0,-61.005 c 0,0 5.841,-69.441 63.601,-61.653 0,0 58.409,-33.748 72.038,33.747 0,0 9.734,10.384 14.277,28.555 l 0,61.654 c 0,0 29.854,33.098 -16.225,38.939 0,0 -14.277,26.608 -37.641,29.854 l 0,3.245 7.787,6.49 c 0,0 39.69,9.588 58.252,49.793 42.258,-28.326 70.077,-76.519 70.077,-131.213 -10e-4,-87.183 -70.676,-157.858 -157.858,-157.858 z"
       id="path7"
       inkscape:connector-curvature="0"
       style="fill:#b17650" /><path
       d="m 341.672,415.678 -0.434,17.756 c 3.906,-1.356 7.742,-2.863 11.502,-4.512 -2.269,-5.147 -5.767,-10.454 -11.068,-13.244 z"
       id="path9"
       inkscape:connector-curvature="0"
       style="fill:#b17650" /></g></svg>