<?xml version="1.0" encoding="UTF-8"?>
<svg width="75px" height="74px" viewBox="0 0 75 74" version="1.1" xmlns="http://www.w3.org/2000/svg" xmlns:xlink="http://www.w3.org/1999/xlink">
    <!-- Generator: Sketch 49.1 (51147) - http://www.bohemiancoding.com/sketch -->
    <title>Group 2</title>
    <desc>Created with Sketch.</desc>
    <defs>
        <circle id="path-1" cx="25" cy="25" r="25"></circle>
        <filter x="-41.0%" y="-37.0%" width="182.0%" height="182.0%" filterUnits="objectBoundingBox" id="filter-2">
            <feMorphology radius="1" operator="dilate" in="SourceAlpha" result="shadowSpreadOuter1"></feMorphology>
            <feOffset dx="0" dy="2" in="shadowSpreadOuter1" result="shadowOffsetOuter1"></feOffset>
            <feGaussianBlur stdDeviation="5.5" in="shadowOffsetOuter1" result="shadowBlurOuter1"></feGaussianBlur>
            <feColorMatrix values="0 0 0 0 0   0 0 0 0 0   0 0 0 0 0  0 0 0 0.0990998641 0" type="matrix" in="shadowBlurOuter1"></feColorMatrix>
        </filter>
    </defs>
    <g id="Appli" stroke="none" stroke-width="1" fill="none" fill-rule="evenodd">
        <g id="Galaxy-S8-Copy-2" transform="translate(-285.000000, 0.000000)">
            <g id="Group-2" transform="translate(298.000000, 9.000000)">
                <g id="Oval">
                    <use fill="black" fill-opacity="1" filter="url(#filter-2)" xlink:href="#path-1"></use>
                    <use fill="#FFFFFF" fill-rule="evenodd" xlink:href="#path-1"></use>
                </g>
                <g id="users-(1)" transform="translate(11.000000, 12.000000)" fill="#953393" fill-rule="nonzero">
                    <path d="M18.7237826,20.2748 L14.3626304,18.0170545 C13.9513043,17.8038545 13.6956522,17.3755636 13.6956522,16.8990545 L13.6956522,15.3007636 C13.8001957,15.1684 13.9102174,15.0176 14.0238913,14.8512 C14.5895217,14.0239273 15.0428478,13.1030545 15.3724565,12.1098545 C16.0166087,11.804 16.4347826,11.1445455 16.4347826,10.4 L16.4347826,8.50909091 C16.4347826,8.05385455 16.2704348,7.6128 15.9782609,7.26818182 L15.9782609,4.75374545 C16.0038261,4.49374545 16.1042609,2.94603636 15.0232174,1.6692 C14.0855217,0.5616 12.5639348,0 10.5,0 C8.43606522,0 6.91447826,0.5616 5.97678261,1.66872727 C4.89573913,2.94556364 4.99617391,4.49374545 5.02173913,4.75327273 L5.02173913,7.26770909 C4.72956522,7.61232727 4.56521739,8.05338182 4.56521739,8.50861818 L4.56521739,10.3995273 C4.56521739,10.9748364 4.81767391,11.5113818 5.24863043,11.8692364 C5.66680435,13.5838182 6.54195652,14.8757818 6.84782609,15.2903636 L6.84782609,16.8546182 C6.84782609,17.3122182 6.60678261,17.732 6.21919565,17.9513455 L2.14656522,20.2516364 C0.822195652,21.0004364 0,22.4346909 0,23.9965818 L0,26 L21,26 L21,24.0887636 C21,22.4630545 20.127587,21.0018545 18.7237826,20.2748 Z" id="Shape"></path>
                    <path d="M25.9323158,20.9380904 L21.4972632,18.9961695 C21.3923509,18.9431242 21.2760351,18.813509 21.1761404,18.6405351 L24.1524561,18.6382287 C24.1524561,18.6382287 24.3244211,18.6552955 24.5912632,18.6552955 C25.0807018,18.6552955 25.7945614,18.5990213 26.4158246,18.329182 C26.7884912,18.1668171 27.0658246,17.8462387 27.1771228,17.4495518 C27.2893333,17.0491747 27.2181754,16.6252732 26.982807,16.285783 C26.1321053,15.0615888 24.1465263,11.8627239 24.0844912,8.61819385 C24.0831228,8.56238092 23.9034035,3.04474259 18.5150175,3 C17.9735789,3.00461264 17.4617895,3.07195716 16.9769123,3.19050198 C17.3381754,4.1563885 17.3048772,5.02079698 17.2802456,5.30124541 L17.2802456,7.48440728 C17.5758246,7.90969256 17.736386,8.41477649 17.736386,8.93323707 L17.736386,10.7782925 C17.736386,11.6579227 17.2784211,12.4720534 16.5472281,12.9287047 C16.2060351,13.8613802 15.7544561,14.7327076 15.2020702,15.5214688 C15.1336491,15.619718 15.0661404,15.7124321 15,15.8000722 L15,17.1192868 C15,17.3231655 15.1076491,17.4998295 15.2878246,17.5906985 L19.6453333,19.7936947 C21.2815088,20.6212021 22.2977895,22.2840583 22.2977895,24.1341877 L22.2977895,26 L28,26 L28,24.2947075 C28,22.8684796 27.2163509,21.5870886 25.9323158,20.9380904 Z" id="Shape"></path>
                </g>
            </g>
        </g>
    </g>
</svg>